<?xml version="1.0" standalone="no"?>
<!DOCTYPE svg PUBLIC "-//W3C//DTD SVG 20010904//EN"
 "http://www.w3.org/TR/2001/REC-SVG-20010904/DTD/svg10.dtd">
<svg version="1.0" xmlns="http://www.w3.org/2000/svg"
 width="2048.000000pt" height="2048.000000pt" viewBox="0 0 2048.000000 2048.000000"
 preserveAspectRatio="xMidYMid meet">
<metadata>
Created by potrace 1.14, written by Peter Selinger 2001-2017
</metadata>
<g transform="translate(0.000000,2048.000000) scale(0.100000,-0.100000)"
fill="#000000" stroke="none">
<path d="M10156 20313 c-1 -1 -58 -3 -126 -4 -78 -1 -128 -6 -132 -13 -5 -7
-8 -6 -8 3 0 11 -3 11 -17 0 -10 -8 -14 -9 -10 -2 5 8 0 11 -13 10 -11 -1 -20
-5 -20 -9 0 -4 -5 -8 -11 -8 -5 0 -8 4 -5 8 6 10 -45 9 -62 -2 -7 -4 -12 -2
-12 6 0 8 -3 9 -8 3 -4 -6 -34 -12 -67 -13 -33 -2 -65 -8 -72 -13 -7 -7 -14
-6 -18 1 -4 6 -12 7 -24 0 -12 -6 -22 -5 -29 2 -7 7 -12 8 -12 3 0 -6 -17 -11
-38 -11 -20 -1 -59 -5 -87 -8 -27 -4 -63 -9 -80 -11 -16 -2 -30 -4 -30 -5 0
-1 -20 -2 -45 -3 -25 -1 -49 -5 -55 -8 -5 -3 -30 -7 -55 -8 -25 -2 -48 -8 -52
-14 -6 -9 -8 -8 -8 1 0 8 -5 10 -12 5 -7 -4 -22 -8 -33 -10 -11 -1 -38 -5 -60
-8 -22 -4 -54 -7 -72 -8 -17 -1 -29 -6 -25 -11 3 -5 -5 -7 -17 -3 -12 3 -28
-1 -36 -10 -8 -8 -15 -10 -15 -4 0 5 -10 8 -22 5 -13 -3 -27 -6 -33 -7 -5 -2
-16 -7 -24 -11 -11 -7 -12 -6 -6 5 7 11 6 12 -6 3 -13 -11 -68 -24 -116 -27
-13 -1 -23 -5 -23 -9 0 -4 -8 -7 -17 -7 -27 1 -68 -6 -78 -13 -13 -8 -90 -22
-91 -17 0 2 -8 -2 -18 -10 -9 -8 -19 -11 -23 -8 -3 3 -17 0 -32 -7 -14 -7 -33
-12 -41 -11 -8 0 -29 -5 -46 -12 -17 -7 -34 -9 -38 -6 -3 4 -6 1 -6 -5 0 -6
-7 -9 -15 -6 -8 4 -15 2 -15 -3 0 -5 -12 -10 -26 -11 -15 -1 -34 -8 -42 -15
-13 -10 -14 -9 -7 3 7 12 6 13 -7 3 -8 -7 -18 -10 -21 -6 -4 3 -7 2 -7 -3 0
-5 -8 -10 -18 -11 -28 -2 -47 -8 -53 -15 -3 -5 -17 -9 -32 -10 -15 -1 -27 -7
-27 -12 0 -5 -3 -6 -7 -3 -3 4 -12 2 -20 -4 -7 -6 -13 -8 -13 -4 0 4 -12 0
-26 -10 -18 -11 -24 -12 -18 -4 6 11 5 12 -8 2 -8 -7 -18 -10 -21 -6 -4 3 -7
1 -7 -5 0 -7 -3 -11 -7 -11 -5 1 -10 0 -13 -1 -3 -1 -13 -3 -22 -6 -10 -2 -24
-6 -30 -8 -7 -2 -23 -7 -35 -11 -13 -4 -23 -12 -23 -19 0 -6 -5 -4 -10 4 -5 8
-10 10 -10 4 0 -12 -46 -29 -69 -25 -8 1 -10 -2 -6 -10 5 -7 3 -10 -6 -7 -8 3
-23 -2 -33 -11 -16 -13 -18 -13 -11 -1 7 12 6 13 -7 3 -8 -7 -18 -10 -21 -6
-4 3 -7 2 -7 -4 0 -9 -34 -24 -62 -27 -4 -1 -12 -6 -19 -13 -6 -6 -18 -9 -27
-6 -10 4 -13 2 -8 -5 4 -8 2 -10 -7 -6 -8 3 -18 1 -22 -5 -3 -6 -18 -11 -33
-11 -21 0 -24 -2 -12 -10 11 -7 7 -10 -17 -10 -18 0 -33 -4 -33 -8 0 -9 -70
-37 -82 -34 -5 1 -8 -3 -8 -9 0 -5 -4 -8 -9 -4 -5 3 -12 1 -16 -5 -4 -6 -11
-8 -16 -5 -5 4 -9 1 -9 -5 0 -7 -7 -10 -15 -6 -8 3 -15 1 -15 -5 0 -10 -58
-35 -72 -31 -5 1 -8 -3 -8 -9 0 -6 -6 -9 -13 -6 -7 3 -19 -4 -26 -15 -7 -11
-19 -17 -27 -14 -8 3 -14 1 -14 -5 0 -6 -4 -7 -10 -4 -5 3 -10 2 -10 -2 0 -10
-70 -38 -85 -34 -5 1 -7 -1 -3 -5 8 -7 -86 -56 -109 -57 -7 0 -10 -3 -8 -7 2
-4 -11 -13 -30 -20 -19 -8 -35 -16 -35 -20 0 -3 -16 -12 -35 -19 -19 -7 -35
-17 -35 -22 0 -6 -4 -8 -9 -5 -5 3 -14 -1 -21 -8 -6 -8 -25 -18 -41 -21 -16
-4 -27 -11 -23 -16 3 -5 -8 -12 -25 -15 -17 -4 -28 -10 -25 -15 3 -5 -5 -9
-18 -9 -13 0 -31 -9 -41 -20 -10 -12 -22 -18 -27 -15 -6 3 -10 2 -10 -4 0 -6
-15 -18 -32 -27 -18 -9 -36 -22 -40 -28 -4 -6 -8 -7 -8 -3 0 5 -7 1 -16 -7 -8
-9 -24 -16 -35 -16 -11 0 -17 -4 -14 -10 3 -5 -1 -10 -9 -10 -9 0 -16 -4 -16
-9 0 -5 -10 -11 -22 -15 -13 -3 -34 -16 -48 -28 -14 -13 -37 -29 -52 -37 -15
-8 -37 -23 -48 -33 -11 -10 -20 -15 -20 -11 0 4 -6 0 -13 -9 -8 -9 -20 -18
-28 -20 -8 -2 -24 -13 -35 -25 -12 -12 -25 -19 -28 -16 -3 4 -6 1 -6 -5 0 -7
-7 -12 -15 -12 -9 0 -18 -7 -21 -15 -4 -8 -12 -15 -20 -15 -8 0 -14 -4 -14
-10 0 -5 -7 -10 -15 -10 -8 0 -15 -5 -15 -12 0 -6 -3 -8 -7 -5 -3 4 -15 -3
-27 -16 -12 -12 -38 -33 -58 -46 -21 -12 -38 -27 -38 -32 0 -5 -5 -9 -10 -9
-12 0 -17 -4 -74 -54 -22 -19 -44 -33 -48 -30 -4 3 -8 -2 -8 -10 0 -9 -4 -16
-9 -16 -4 0 -21 -12 -36 -27 -16 -16 -25 -21 -20 -13 4 8 -4 3 -19 -12 -15
-16 -31 -28 -37 -28 -6 0 -7 -4 -4 -10 3 -5 0 -10 -8 -10 -8 0 -18 -7 -21 -16
-3 -8 -11 -12 -17 -9 -6 4 -13 -2 -16 -14 -3 -12 -12 -21 -19 -21 -8 0 -14 -4
-14 -8 0 -5 -11 -14 -25 -20 -14 -6 -25 -19 -25 -27 0 -9 -4 -14 -8 -11 -5 3
-18 -5 -29 -17 -12 -12 -49 -47 -83 -77 -117 -104 -130 -116 -130 -129 0 -7
-5 -9 -10 -6 -6 3 -13 -1 -16 -9 -3 -8 -14 -18 -25 -21 -10 -4 -18 -9 -17 -13
4 -10 -182 -192 -195 -192 -7 0 -5 -5 3 -10 12 -8 11 -10 -7 -10 -13 0 -22 -3
-21 -7 3 -16 -14 -43 -24 -37 -5 3 -12 -3 -15 -15 -3 -11 -14 -23 -25 -27 -11
-3 -17 -8 -15 -10 4 -5 -15 -27 -128 -150 -47 -51 -55 -62 -55 -74 0 -6 -4 -8
-10 -5 -6 3 -10 2 -10 -4 0 -5 -18 -29 -40 -52 -22 -23 -38 -45 -35 -47 2 -2
-12 -19 -31 -37 -18 -18 -34 -37 -34 -44 0 -6 -7 -11 -15 -11 -8 0 -15 -9 -15
-19 0 -10 -7 -21 -15 -25 -8 -3 -15 -10 -15 -16 0 -6 -12 -22 -27 -36 -15 -14
-28 -32 -29 -41 -2 -9 -14 -26 -28 -38 -14 -12 -26 -28 -26 -34 0 -6 -7 -14
-15 -17 -8 -4 -15 -12 -15 -20 0 -8 -3 -14 -8 -14 -4 0 -22 -25 -40 -55 -18
-30 -38 -55 -43 -55 -6 0 -8 -4 -5 -8 3 -5 -4 -14 -14 -22 -10 -8 -17 -17 -15
-20 3 -4 -4 -15 -15 -25 -11 -10 -20 -24 -20 -32 0 -7 -7 -16 -15 -19 -8 -4
-15 -14 -15 -24 0 -10 -7 -20 -15 -24 -8 -3 -15 -12 -15 -20 0 -8 -3 -16 -7
-18 -11 -4 -73 -107 -73 -119 0 -6 -4 -7 -10 -4 -5 3 -10 -1 -10 -9 0 -8 -6
-21 -14 -28 -7 -8 -17 -24 -20 -36 -4 -12 -12 -22 -17 -22 -6 0 -8 -4 -5 -9 3
-4 -3 -16 -14 -26 -10 -9 -22 -30 -25 -46 -4 -16 -11 -27 -16 -23 -8 5 -13 -9
-10 -28 0 -5 -4 -8 -10 -8 -5 0 -7 -4 -4 -10 3 -5 1 -10 -4 -10 -6 0 -11 -6
-11 -14 0 -8 -3 -16 -7 -18 -5 -1 -24 -33 -43 -70 -19 -38 -38 -68 -42 -68 -4
0 -8 -3 -7 -7 2 -16 -14 -53 -22 -53 -5 0 -9 -9 -9 -19 0 -11 -4 -23 -10 -26
-14 -8 -70 -127 -65 -136 3 -4 -2 -10 -11 -13 -9 -4 -14 -13 -10 -22 3 -8 2
-13 -3 -9 -5 3 -12 -8 -16 -25 -4 -17 -11 -27 -16 -24 -6 3 -9 0 -8 -7 3 -20
-21 -79 -32 -79 -5 0 -9 -3 -8 -7 2 -15 -14 -53 -22 -53 -5 0 -6 -7 -3 -15 3
-8 -4 -28 -16 -45 -12 -16 -18 -30 -13 -30 4 0 2 -4 -5 -9 -7 -4 -14 -18 -15
-29 -1 -12 -5 -22 -9 -22 -4 0 -7 -3 -6 -7 1 -5 -5 -21 -12 -38 -7 -16 -14
-32 -15 -35 -1 -3 -7 -18 -13 -33 -7 -16 -9 -33 -6 -39 4 -7 2 -8 -4 -4 -7 4
-12 2 -12 -4 0 -7 -6 -26 -14 -43 -24 -57 -58 -146 -60 -159 -1 -7 -8 -23 -14
-35 -7 -13 -10 -23 -6 -23 3 0 1 -7 -6 -15 -6 -8 -9 -19 -5 -25 3 -5 0 -13 -8
-16 -9 -3 -13 -13 -10 -25 3 -10 1 -19 -5 -19 -9 0 -27 -55 -23 -73 1 -4 -5
-17 -13 -29 -8 -11 -12 -27 -9 -36 5 -11 3 -13 -7 -7 -9 5 -11 4 -6 -4 4 -6 2
-18 -4 -26 -7 -8 -9 -15 -5 -15 4 0 0 -12 -10 -26 -9 -15 -12 -23 -6 -20 6 4
11 2 11 -3 0 -6 -5 -11 -10 -11 -6 0 -10 -6 -9 -12 3 -24 -13 -78 -22 -72 -5
3 -9 2 -8 -3 4 -25 -2 -73 -10 -69 -4 3 -7 -6 -5 -19 1 -14 -1 -25 -5 -25 -4
0 -8 -12 -9 -26 -1 -15 -8 -34 -15 -42 -10 -13 -9 -14 3 -7 12 7 13 6 4 -6
-13 -17 -28 -69 -25 -87 1 -8 -2 -19 -7 -25 -4 -7 -9 -25 -10 -41 -1 -16 -6
-34 -11 -40 -4 -6 -8 -23 -7 -38 1 -14 -2 -24 -6 -22 -4 3 -8 -9 -8 -26 0 -22
-4 -29 -12 -24 -9 5 -9 2 1 -9 11 -13 11 -17 1 -17 -8 0 -10 -3 -7 -7 4 -3 1
-13 -6 -21 -10 -13 -9 -14 1 -8 11 7 12 4 3 -12 -6 -11 -11 -32 -11 -46 0 -14
-6 -26 -12 -26 -10 0 -9 -3 1 -9 10 -6 10 -10 1 -16 -9 -6 -9 -10 1 -16 10 -6
11 -9 2 -9 -7 0 -13 -10 -13 -23 0 -13 -3 -27 -7 -31 -4 -3 -8 -23 -9 -44 -6
-80 -15 -137 -23 -140 -5 -2 -7 -12 -4 -23 3 -10 0 -26 -7 -34 -9 -11 -9 -15
-1 -15 8 0 9 -5 1 -19 -5 -11 -10 -40 -10 -66 0 -25 -4 -44 -8 -41 -5 3 -9 -1
-9 -9 0 -8 5 -12 10 -8 5 3 5 -2 -1 -13 -5 -11 -8 -30 -7 -44 1 -14 0 -29 -4
-35 -3 -5 -7 -23 -8 -40 -6 -109 -9 -135 -18 -135 -5 0 -3 -5 5 -10 10 -6 11
-10 3 -10 -7 0 -13 -5 -13 -11 0 -5 5 -7 12 -3 7 5 8 3 3 -6 -5 -8 -10 -39
-11 -69 -2 -31 -5 -65 -8 -76 -3 -12 -6 -62 -7 -113 -1 -61 -5 -90 -12 -85 -6
4 -7 1 -1 -8 14 -24 16 -51 2 -43 -9 5 -9 2 1 -9 11 -14 11 -17 0 -17 -12 0
-12 -2 0 -9 8 -5 9 -11 3 -15 -11 -7 -11 -24 1 -43 5 -8 3 -13 -5 -13 -9 0 -9
-3 2 -10 10 -6 11 -10 2 -10 -14 0 -12 -21 3 -32 6 -5 5 -8 -4 -8 -11 0 -11
-3 -1 -15 10 -12 10 -15 0 -15 -10 0 -10 -3 -1 -14 9 -11 9 -16 0 -21 -8 -6
-7 -10 2 -16 12 -7 12 -9 0 -9 -10 0 -11 -3 -3 -13 7 -8 7 -18 2 -27 -6 -9 -5
-17 3 -22 9 -6 9 -8 -1 -8 -8 0 -10 -5 -5 -12 10 -17 13 -39 4 -34 -9 6 -7
-57 3 -72 4 -7 1 -12 -6 -12 -9 0 -9 -3 2 -10 11 -7 12 -12 3 -21 -9 -9 -9
-16 0 -29 8 -14 7 -23 -4 -36 -8 -10 -9 -15 -2 -11 8 5 11 -7 11 -40 0 -27 1
-50 2 -53 4 -13 10 -86 10 -112 -1 -20 10 -167 15 -223 3 -27 6 -66 6 -85 1
-19 4 -39 9 -45 4 -5 6 -26 5 -45 -1 -19 2 -41 8 -47 6 -9 6 -13 -2 -13 -7 0
-9 -4 -6 -10 9 -14 14 -44 16 -96 2 -24 7 -44 12 -44 5 0 4 -7 -3 -15 -10 -12
-10 -15 0 -15 7 0 10 -8 7 -20 -3 -11 -2 -22 2 -25 7 -4 10 -24 13 -95 1 -8 6
-19 12 -23 8 -6 7 -10 -2 -14 -8 -3 -10 -9 -3 -16 5 -7 10 -15 10 -19 1 -5 1
-9 2 -10 2 -9 10 -70 13 -106 2 -24 7 -46 10 -49 3 -4 6 -22 6 -40 0 -19 4
-32 8 -29 5 3 8 -12 7 -34 -1 -22 2 -37 7 -34 4 3 8 -13 8 -36 0 -23 4 -39 8
-36 5 3 9 -1 9 -9 0 -8 -4 -12 -8 -9 -5 3 -2 -11 6 -29 8 -19 15 -51 17 -71 1
-20 6 -36 11 -36 5 0 7 -12 4 -26 -2 -15 0 -28 8 -30 6 -3 11 -15 10 -27 -1
-12 3 -28 9 -36 9 -12 8 -13 -3 -7 -8 6 -7 0 4 -18 12 -18 14 -26 5 -26 -9 0
-9 -4 -2 -13 6 -7 13 -25 16 -40 3 -15 9 -39 12 -54 3 -15 11 -34 17 -42 10
-12 9 -13 -3 -6 -13 8 -13 7 -1 -8 7 -9 10 -17 6 -17 -4 0 -2 -7 6 -16 7 -9
14 -23 15 -32 4 -42 16 -88 24 -96 5 -5 6 -15 3 -22 -3 -8 1 -14 8 -14 11 0
11 -3 -1 -10 -11 -7 -11 -10 -2 -10 7 0 12 -6 11 -12 -4 -31 2 -49 13 -42 7 5
9 2 5 -9 -3 -8 7 -52 23 -96 15 -45 25 -81 22 -81 -4 0 0 -5 8 -10 13 -9 13
-10 0 -10 -9 0 -11 -3 -5 -8 16 -10 46 -94 32 -85 -7 4 -4 -5 6 -20 9 -15 15
-27 11 -27 -4 0 -1 -7 6 -15 7 -8 10 -22 6 -30 -3 -9 -2 -13 4 -10 6 3 10 -5
10 -19 0 -14 5 -26 12 -26 6 0 9 -3 6 -6 -4 -3 0 -20 7 -39 8 -18 11 -35 8
-39 -4 -3 -1 -6 5 -6 7 0 11 -3 11 -7 -3 -17 14 -73 22 -73 5 0 9 -13 9 -30 0
-16 5 -30 11 -30 6 0 9 -9 6 -20 -3 -11 -1 -20 4 -20 5 0 9 -9 9 -20 0 -11 5
-20 11 -20 5 0 7 -4 4 -10 -3 -5 -2 -10 2 -10 5 0 10 -14 11 -32 2 -18 8 -36
15 -40 7 -4 8 -8 3 -8 -4 0 -1 -11 8 -25 9 -14 13 -25 9 -25 -5 0 -1 -5 7 -10
11 -7 12 -10 2 -10 -10 0 -10 -4 2 -16 9 -8 16 -22 16 -30 0 -8 5 -14 11 -14
8 0 7 -6 -2 -17 -10 -11 -10 -14 -1 -9 8 5 12 1 12 -13 0 -10 4 -21 9 -23 6
-1 13 -18 16 -37 3 -18 12 -43 20 -55 8 -11 15 -28 15 -38 0 -10 4 -18 8 -18
4 0 8 -10 9 -22 1 -11 6 -24 11 -27 5 -3 13 -21 17 -39 3 -17 11 -32 17 -32 6
0 8 -7 4 -15 -3 -8 -2 -15 2 -15 7 0 33 -60 33 -77 0 -5 7 -15 14 -23 14 -15
15 -19 15 -46 0 -8 4 -12 10 -9 5 3 7 0 4 -8 -3 -8 -1 -18 5 -22 6 -3 11 -13
11 -21 0 -9 7 -22 15 -30 8 -9 15 -27 15 -40 0 -14 4 -23 9 -20 5 3 11 -1 14
-8 3 -8 1 -17 -6 -20 -7 -2 -4 -5 5 -5 11 -1 15 -6 12 -16 -4 -8 -1 -15 5 -15
6 0 11 -11 11 -25 0 -14 7 -28 15 -31 8 -4 15 -17 15 -30 0 -13 5 -24 10 -24
6 0 10 -3 9 -7 -2 -17 14 -53 24 -53 6 0 7 -3 4 -7 -4 -3 0 -17 8 -30 9 -13
12 -23 8 -23 -5 0 -2 -4 5 -9 7 -4 14 -17 15 -29 0 -12 7 -24 14 -26 7 -3 13
-15 13 -26 0 -11 5 -20 10 -20 6 0 9 -3 8 -7 -4 -16 14 -53 23 -47 5 3 9 2 7
-3 -4 -17 14 -73 23 -67 5 3 9 -2 9 -10 0 -9 9 -30 19 -48 11 -17 18 -35 15
-40 -3 -4 2 -11 10 -14 9 -3 16 -17 16 -29 0 -13 4 -25 8 -27 4 -1 18 -23 30
-48 12 -25 26 -52 31 -60 5 -8 17 -32 27 -52 10 -21 22 -38 26 -38 5 0 8 -3 7
-7 -2 -16 14 -53 22 -53 5 0 9 -9 9 -20 0 -11 4 -20 8 -20 7 0 35 -66 35 -80
0 -3 8 -11 18 -18 11 -7 19 -21 19 -31 0 -10 7 -24 15 -31 9 -7 13 -15 11 -18
-3 -3 3 -17 14 -32 11 -16 20 -33 20 -39 0 -6 5 -11 11 -11 5 0 7 -5 4 -10 -3
-6 -1 -10 4 -10 6 0 11 -8 11 -17 0 -9 12 -30 28 -46 15 -17 21 -27 15 -23
-19 11 -16 -1 8 -28 12 -13 21 -28 22 -33 0 -4 16 -33 36 -63 19 -30 35 -57
35 -60 0 -11 31 -60 39 -60 4 0 7 -9 7 -20 0 -11 5 -20 11 -20 5 0 7 -4 4 -10
-3 -5 -1 -10 4 -10 6 0 11 -7 11 -16 0 -8 4 -12 10 -9 6 3 7 -1 4 -9 -3 -9 -1
-16 5 -16 6 0 11 -7 11 -15 0 -8 5 -15 10 -15 6 0 10 -9 10 -19 0 -10 7 -21
15 -25 8 -3 15 -15 15 -26 0 -11 5 -20 11 -20 5 0 7 -5 4 -10 -3 -6 -2 -10 3
-10 4 0 16 -16 25 -36 10 -19 22 -32 27 -29 6 4 10 3 9 -2 -1 -4 0 -11 1 -15
1 -5 3 -11 4 -15 6 -21 30 -63 37 -63 4 0 11 -10 15 -22 4 -13 17 -37 30 -54
13 -17 24 -36 24 -42 0 -6 8 -16 17 -21 10 -6 14 -11 10 -11 -5 0 1 -13 12
-29 12 -16 21 -32 21 -35 0 -3 7 -14 15 -23 8 -10 15 -22 14 -26 0 -5 10 -18
23 -30 13 -12 24 -31 26 -42 2 -11 11 -27 20 -35 9 -9 18 -22 20 -30 2 -7 13
-22 24 -32 12 -10 17 -18 13 -18 -4 0 0 -9 10 -20 10 -11 15 -20 11 -20 -4 0
-1 -6 6 -14 22 -23 41 -54 37 -59 -2 -3 9 -16 25 -30 16 -14 25 -30 22 -36 -4
-6 -2 -11 3 -11 6 0 11 -6 11 -14 0 -8 7 -16 15 -20 8 -3 15 -10 15 -17 0 -6
9 -22 20 -36 11 -14 17 -30 13 -37 -3 -6 -3 -8 2 -4 9 8 35 -15 35 -31 0 -6 5
-11 11 -11 5 0 8 -4 5 -9 -3 -4 3 -16 14 -26 11 -10 17 -22 14 -26 -3 -5 0 -9
5 -9 6 0 11 -7 11 -15 0 -7 6 -18 13 -22 12 -8 51 -63 51 -73 0 -3 10 -15 23
-28 13 -13 23 -32 23 -42 0 -11 6 -20 13 -20 8 0 20 -12 28 -27 8 -16 20 -34
27 -41 6 -7 12 -20 12 -28 0 -8 7 -14 15 -14 8 0 15 -5 15 -12 0 -6 11 -25 24
-42 13 -17 24 -35 25 -41 1 -5 12 -20 23 -33 12 -12 18 -22 14 -22 -4 0 5 -11
20 -25 15 -14 24 -25 20 -25 -4 0 4 -12 18 -27 14 -15 23 -30 20 -35 -3 -4 2
-8 11 -8 9 0 14 -4 11 -8 -3 -5 4 -18 14 -30 11 -12 20 -26 20 -31 0 -6 8 -15
18 -20 9 -6 13 -11 8 -11 -6 0 -1 -9 10 -20 30 -30 44 -48 44 -58 0 -5 9 -17
20 -27 11 -10 20 -22 20 -27 0 -4 8 -17 18 -27 32 -36 42 -50 54 -75 6 -14 15
-23 19 -20 5 3 9 0 9 -6 0 -6 6 -18 13 -25 29 -33 37 -45 37 -55 0 -5 8 -10
18 -11 9 0 12 -3 5 -6 -8 -3 -3 -13 14 -29 14 -13 22 -24 18 -24 -5 0 1 -9 13
-20 12 -12 22 -24 22 -28 0 -4 14 -23 30 -42 16 -19 34 -40 40 -47 5 -7 10
-17 10 -23 0 -6 4 -8 10 -5 6 3 11 1 11 -4 1 -6 2 -14 3 -18 0 -5 10 -17 21
-29 25 -27 44 -50 75 -94 13 -19 30 -41 37 -48 7 -7 13 -18 13 -23 0 -6 5 -7
10 -4 6 3 10 -1 10 -9 0 -8 11 -26 25 -40 14 -14 25 -29 25 -33 0 -5 9 -16 20
-26 11 -9 20 -24 20 -32 0 -9 5 -13 10 -10 6 3 10 2 10 -2 0 -10 23 -41 62
-85 16 -16 25 -35 21 -41 -3 -6 -1 -7 5 -3 7 4 12 2 12 -4 0 -6 14 -24 30 -40
17 -17 28 -30 24 -30 -4 0 3 -9 16 -20 13 -11 20 -20 16 -20 -4 0 3 -11 16
-24 35 -35 68 -76 63 -76 -3 0 13 -19 35 -42 22 -24 40 -49 40 -56 0 -7 5 -10
10 -7 6 3 10 -1 10 -9 0 -9 4 -16 8 -16 4 0 19 -18 32 -40 14 -22 31 -40 39
-40 8 0 12 -3 8 -6 -3 -3 4 -17 16 -30 12 -14 30 -33 39 -44 9 -10 14 -21 10
-24 -3 -3 2 -6 12 -6 9 0 15 -4 11 -9 -3 -6 0 -13 7 -18 7 -4 26 -25 42 -46
15 -21 44 -54 62 -73 19 -19 32 -34 28 -34 -4 0 5 -11 20 -25 14 -13 26 -26
26 -29 0 -3 16 -22 35 -43 19 -20 31 -41 28 -46 -3 -6 -1 -7 5 -3 7 4 12 4 12
-1 0 -4 20 -30 45 -56 25 -27 45 -51 45 -53 0 -3 11 -17 25 -32 14 -15 32 -34
40 -43 8 -9 15 -18 15 -21 0 -3 18 -25 40 -49 22 -24 56 -62 75 -84 20 -22 58
-64 85 -94 27 -30 47 -58 44 -63 -3 -4 0 -8 6 -8 12 0 34 -19 40 -35 6 -18 27
-34 35 -27 4 4 5 2 3 -3 -2 -6 7 -21 19 -34 12 -13 20 -29 16 -34 -3 -6 -2 -7
4 -4 10 6 43 -27 43 -44 0 -5 4 -8 9 -5 4 3 13 -6 20 -20 6 -14 16 -22 21 -19
6 3 10 1 10 -5 0 -16 51 -76 62 -73 4 2 8 -1 8 -7 0 -9 21 -35 73 -91 9 -10
17 -24 17 -30 0 -5 4 -8 9 -5 5 3 16 -6 25 -19 10 -14 22 -23 28 -19 7 4 8 3
4 -5 -4 -7 9 -27 33 -49 23 -21 41 -41 41 -45 0 -4 18 -24 40 -44 22 -21 40
-43 40 -51 0 -7 5 -10 10 -7 5 3 10 3 10 -2 1 -15 67 -82 75 -75 3 4 5 2 3 -4
-2 -7 10 -23 25 -38 15 -14 25 -31 22 -36 -3 -5 0 -7 8 -4 9 3 16 -3 20 -16 3
-12 15 -24 26 -27 12 -3 21 -10 21 -15 0 -6 20 -31 45 -57 88 -91 125 -133
125 -142 0 -5 5 -9 11 -9 11 0 39 -24 39 -34 0 -10 40 -46 51 -46 5 0 8 -3 6
-8 -5 -9 30 -42 37 -35 3 4 6 1 6 -5 0 -6 22 -34 50 -61 27 -28 50 -55 50 -61
0 -6 5 -8 10 -5 6 3 10 -1 10 -9 0 -9 7 -16 15 -16 9 0 15 -9 15 -22 0 -17 3
-19 9 -9 7 11 10 9 16 -8 3 -12 11 -19 16 -16 5 4 9 2 9 -3 0 -14 87 -102 100
-102 5 0 9 -4 7 -9 -1 -5 15 -25 37 -45 21 -20 35 -36 30 -36 -5 0 3 -8 16
-17 41 -29 60 -47 60 -58 0 -5 16 -21 34 -35 19 -14 32 -28 30 -32 -2 -4 5
-10 17 -13 11 -4 18 -9 16 -12 -5 -4 36 -45 92 -93 13 -11 21 -20 17 -20 -4 0
5 -11 20 -25 15 -14 32 -25 37 -25 6 0 8 -2 5 -5 -5 -6 99 -115 110 -115 4 0
16 -13 27 -29 10 -16 22 -28 26 -25 4 2 11 -5 14 -17 4 -11 9 -18 12 -15 3 3
14 -4 24 -16 11 -11 19 -18 19 -13 0 4 14 -7 32 -24 18 -17 38 -29 46 -26 7 2
11 1 8 -3 -3 -4 4 -14 16 -21 16 -10 19 -10 12 1 -4 7 5 2 19 -11 15 -14 27
-21 27 -16 0 4 8 1 18 -7 9 -8 24 -14 32 -13 8 0 18 -4 22 -9 3 -5 16 -11 27
-13 37 -5 46 -8 51 -15 3 -4 20 -8 38 -10 18 -1 32 -5 32 -8 0 -4 10 -6 23 -5
12 1 30 -2 39 -6 10 -6 19 -5 23 1 4 6 12 7 18 3 19 -12 135 -15 155 -4 13 7
23 6 30 -1 9 -9 12 -9 12 -1 0 6 8 10 18 8 9 -1 25 2 35 7 12 6 17 5 17 -4 0
-9 3 -9 10 2 5 8 10 11 10 6 0 -5 7 -3 15 4 8 7 15 9 15 5 0 -4 8 -1 17 6 15
12 16 12 8 -1 -6 -12 -5 -13 6 -2 7 6 21 12 31 12 10 0 18 4 18 10 0 5 7 7 15
4 8 -4 15 -1 15 5 0 6 9 11 19 11 11 0 23 5 26 10 4 6 11 8 16 5 5 -4 9 -2 9
3 0 5 8 12 18 15 37 13 101 55 94 62 -4 5 1 5 11 2 11 -4 17 -1 17 8 0 8 5 15
12 15 6 0 28 18 49 39 20 22 40 37 43 34 3 -4 6 0 6 8 0 8 16 25 34 39 19 14
32 27 30 29 -5 5 37 41 48 41 5 0 6 5 3 10 -3 6 1 10 9 10 9 0 16 7 16 16 0 8
4 13 9 9 5 -3 12 4 16 15 4 11 11 18 16 15 5 -4 9 -2 9 3 0 14 40 57 53 57 7
1 11 6 10 13 -2 7 4 12 12 12 8 0 15 5 15 10 0 14 37 50 52 50 6 0 9 2 6 5 -7
7 90 105 104 105 6 0 9 3 5 6 -8 8 85 100 97 96 5 -2 6 4 3 13 -4 8 -2 15 3
15 12 0 120 111 120 123 0 4 4 6 9 2 5 -3 12 4 16 15 4 11 11 18 16 15 5 -4 9
-1 9 4 0 15 37 51 44 44 3 -4 6 1 6 10 0 10 6 17 13 17 8 0 22 15 32 34 11 19
21 33 24 32 4 -2 15 8 26 21 11 14 50 56 88 94 37 37 67 73 67 79 0 5 5 10 11
10 14 0 39 25 39 39 0 6 6 11 14 11 8 0 18 5 22 12 5 7 3 8 -7 3 -8 -5 7 12
33 37 26 25 45 48 42 51 -3 3 4 8 15 12 11 3 23 15 26 26 4 10 11 17 16 14 5
-4 9 1 9 9 0 8 9 20 20 26 11 6 17 16 14 22 -5 7 -2 8 5 4 8 -5 14 0 18 13 3
12 12 21 20 21 8 0 11 5 8 10 -3 6 4 14 17 19 13 6 20 10 16 10 -5 1 19 29 51
63 33 34 58 65 55 70 -3 4 0 8 6 8 13 0 79 70 80 83 0 5 5 5 10 2 6 -3 10 -1
10 4 0 6 15 26 34 46 19 19 32 35 30 35 -3 0 11 15 30 34 19 19 32 37 29 39
-2 3 5 8 16 12 12 3 21 10 21 14 0 4 16 24 35 44 19 20 35 42 35 47 0 6 7 10
15 10 8 0 14 3 13 8 -3 8 26 43 84 104 21 21 35 38 32 38 -3 0 8 12 23 26 15
15 27 30 26 35 -2 5 5 9 14 9 9 0 14 3 11 6 -4 3 8 20 25 38 18 18 43 48 57
66 14 18 41 48 60 66 19 19 32 34 28 34 -5 0 0 8 10 18 9 11 20 17 25 15 4 -2
7 3 7 11 0 8 8 20 18 25 9 6 13 11 9 11 -5 0 5 11 22 25 16 14 33 35 36 46 4
10 11 17 16 14 5 -4 9 -1 9 5 0 6 21 36 48 67 26 30 46 59 44 65 -1 5 2 7 8 3
5 -3 10 -1 10 5 0 6 5 8 12 4 7 -5 9 -2 5 9 -4 11 1 18 14 22 11 4 18 9 15 12
-3 3 7 17 22 31 15 13 20 21 12 17 -8 -5 4 11 28 34 23 24 39 47 36 53 -4 7
-2 8 5 4 6 -4 14 0 18 11 4 10 21 30 37 45 17 16 27 28 23 28 -4 0 5 14 20 30
56 60 72 80 67 80 -3 0 5 11 18 25 13 13 35 38 50 54 15 16 24 31 21 35 -4 3
-1 6 6 6 7 0 10 4 6 9 -3 5 4 12 15 16 11 3 20 13 20 21 0 8 4 14 8 14 4 0 16
14 26 30 9 17 22 27 28 24 6 -4 8 -3 5 3 -4 6 5 23 18 37 14 15 25 31 25 37 0
5 5 9 10 9 6 0 13 7 17 16 3 9 15 26 27 39 12 13 29 34 38 47 10 12 29 37 43
53 14 17 25 34 25 38 0 5 5 5 10 2 6 -4 9 -2 8 3 -3 8 14 33 73 108 15 18 30
30 34 26 5 -4 6 -2 2 3 -6 12 47 87 57 80 3 -3 4 -2 1 1 -2 4 6 19 18 34 12
15 31 40 41 54 11 15 28 37 38 49 11 11 28 36 39 54 11 18 25 33 30 33 5 0 9
5 9 10 0 6 5 16 10 23 42 49 54 65 66 90 8 15 18 27 22 27 4 0 20 20 35 45 16
25 33 45 39 45 5 0 6 5 3 10 -3 6 -1 10 4 10 6 0 11 6 11 13 0 7 9 18 21 25
12 8 18 19 15 28 -3 8 -2 12 3 9 5 -3 12 4 16 15 4 11 11 18 16 15 5 -4 9 0 9
8 0 8 13 30 30 48 16 19 30 39 30 46 0 6 3 13 8 15 9 4 72 85 72 93 0 4 6 13
13 20 28 32 37 45 32 45 -3 0 3 9 13 19 21 24 53 69 52 76 0 3 8 14 18 24 32
36 42 50 42 60 0 5 7 12 16 15 8 3 12 10 9 16 -3 5 -2 10 4 10 5 0 13 9 16 20
4 11 11 18 16 14 5 -3 9 -2 8 3 -2 9 11 44 23 58 5 6 20 24 33 40 14 17 28 38
31 48 3 9 10 17 16 17 6 0 9 3 5 6 -3 3 3 16 14 27 11 12 22 32 25 44 3 12 14
25 25 28 10 4 18 9 17 13 -4 12 35 71 43 66 4 -2 5 5 2 16 -4 13 0 20 10 20 8
0 18 11 21 25 4 14 11 25 16 25 6 0 10 5 10 10 0 6 9 20 20 32 10 12 17 24 15
28 -3 5 1 10 9 13 7 3 23 25 36 49 12 23 27 46 33 50 6 3 12 13 13 22 1 8 11
25 23 37 11 12 18 25 16 29 -3 5 2 10 10 14 8 3 15 10 15 16 0 6 7 18 15 27 8
8 13 19 10 24 -4 5 0 9 8 9 8 0 18 11 21 25 4 14 11 25 16 25 6 0 10 9 10 20
0 11 4 20 9 20 5 0 19 20 31 45 12 25 26 45 31 45 5 0 9 7 9 15 0 8 4 15 9 15
5 0 12 11 15 25 4 14 11 25 17 25 6 0 7 4 4 10 -3 5 -2 10 3 10 5 0 17 15 27
32 29 57 42 79 54 91 6 6 11 19 11 29 0 10 4 18 9 18 5 0 13 9 16 20 4 11 11
18 16 14 5 -3 9 -2 8 3 -3 17 14 53 22 47 5 -3 9 1 9 9 0 20 50 107 61 107 6
0 7 5 4 11 -4 6 1 20 12 32 10 12 25 34 33 50 7 15 17 27 22 27 4 0 8 9 8 20
0 11 5 20 11 20 6 0 8 7 5 16 -3 8 -2 12 4 9 6 -3 10 1 10 9 0 9 5 16 11 16 5
0 7 5 4 10 -3 6 1 13 9 16 9 3 13 10 10 15 -3 5 0 9 6 9 6 0 8 4 5 10 -3 6 -2
10 4 10 6 0 8 6 5 14 -3 7 2 16 10 19 9 4 16 14 16 22 0 10 5 13 12 9 7 -4 8
-3 4 5 -4 6 2 24 13 40 12 16 21 34 21 40 0 6 5 11 11 11 6 0 8 7 5 16 -3 8
-2 13 2 10 4 -2 16 16 27 40 11 24 22 44 26 44 7 0 23 50 21 63 -1 4 3 6 10 5
7 -2 12 3 13 10 0 7 5 16 10 20 6 4 11 16 13 27 2 11 10 25 18 31 8 6 14 16
14 22 0 11 31 74 41 82 8 7 24 53 21 63 -1 5 2 6 8 2 5 -3 10 1 10 9 0 9 5 16
10 16 6 0 9 3 8 7 -2 9 32 85 42 93 3 3 12 21 20 40 8 19 18 38 22 41 5 3 10
15 11 27 0 12 7 24 14 26 7 3 13 15 13 26 0 12 4 18 10 15 6 -3 7 1 4 9 -3 9
-1 16 5 16 6 0 11 9 11 21 0 11 5 17 10 14 6 -4 10 5 10 19 0 14 5 26 10 26 6
0 9 3 8 8 -1 4 3 17 10 28 6 12 8 24 5 28 -3 3 -1 6 6 6 12 0 31 41 34 72 1 9
5 14 9 12 4 -3 8 2 8 11 0 9 4 14 9 11 5 -4 8 1 7 11 -2 9 8 36 22 60 13 24
20 43 15 43 -4 0 0 5 10 11 9 5 17 18 17 27 0 10 5 23 12 30 7 7 9 12 4 12 -4
0 2 13 14 30 12 16 22 39 23 50 1 11 5 20 10 20 4 0 5 4 2 10 -3 5 -1 10 4 10
6 0 11 9 11 20 0 11 5 20 11 20 5 0 7 5 4 10 -3 6 -1 10 4 10 6 0 11 11 11 25
0 14 5 25 11 25 6 0 9 7 5 15 -3 8 -2 15 2 15 4 0 13 15 20 33 7 17 19 45 27
60 8 16 15 37 15 48 0 10 4 19 8 19 10 0 37 69 36 92 -1 10 3 15 7 12 5 -3 9
4 9 15 0 12 5 21 10 21 6 0 10 8 8 18 -2 9 2 16 8 15 7 -1 9 9 7 25 -4 21 -2
24 6 12 9 -12 11 -10 11 10 0 38 11 70 21 64 5 -3 9 9 9 25 0 17 5 31 11 31 6
0 9 7 5 15 -3 8 -1 15 4 15 6 0 10 8 10 18 0 10 6 24 12 30 7 7 13 18 14 25 0
7 2 20 2 30 1 10 6 16 10 13 4 -2 9 6 10 19 2 34 35 105 47 105 5 0 3 5 -5 10
-9 6 -10 10 -3 10 6 0 10 9 8 20 -2 11 0 20 6 20 5 0 9 7 9 15 0 8 4 15 8 15
4 0 9 9 10 20 4 44 6 50 14 50 5 0 7 4 3 9 -3 5 1 16 9 24 8 8 12 17 9 20 -3
4 -2 14 2 24 5 10 7 24 6 30 -1 7 2 13 7 13 5 0 13 15 17 33 14 62 37 120 50
129 6 5 5 8 -3 8 -10 0 -9 7 2 29 9 16 12 31 9 35 -4 3 -1 6 6 6 7 0 10 4 6 9
-3 5 -1 13 5 16 8 5 7 12 -2 23 -10 12 -10 14 0 8 8 -5 12 0 12 13 0 12 5 21
11 21 5 0 8 4 4 9 -3 5 -1 12 4 16 6 3 8 12 4 20 -3 8 0 15 5 15 6 0 9 10 7
22 -3 12 0 25 5 28 5 3 11 16 13 28 2 12 6 24 9 28 4 3 4 12 1 20 -3 8 0 14 7
14 10 0 10 3 0 15 -10 12 -10 15 3 15 10 0 14 6 11 15 -3 8 -2 20 2 27 5 7 9
21 10 31 3 35 4 38 14 32 6 -3 7 1 4 10 -3 8 1 33 10 56 9 22 14 45 11 50 -4
5 -2 9 3 9 5 0 8 10 8 23 -1 12 1 27 6 33 4 6 9 23 10 38 1 14 7 26 12 26 5 0
6 3 3 6 -3 4 -2 16 4 27 8 15 8 18 -1 12 -9 -6 -9 -2 -1 14 7 11 9 21 6 21 -3
0 -1 9 5 19 5 11 12 37 16 58 3 21 8 47 12 58 3 11 5 26 4 33 -2 6 2 12 8 12
5 0 10 16 10 36 0 25 3 33 13 28 8 -5 8 -2 -2 9 -7 9 -9 17 -4 17 5 0 8 15 8
33 -1 17 2 34 6 37 4 3 10 21 12 40 3 19 6 35 7 35 2 0 11 82 11 108 0 9 4 17
8 17 5 0 7 11 6 25 -2 14 0 25 4 25 4 0 7 15 6 33 -1 17 1 37 4 42 6 10 12 64
11 103 0 12 4 22 8 22 4 0 8 8 9 18 1 9 2 34 4 55 1 21 5 39 8 41 3 2 6 29 5
60 0 31 2 56 5 56 3 0 7 12 7 28 1 15 5 52 9 82 4 30 8 88 9 127 0 41 5 73 11
73 6 0 4 4 -4 9 -9 6 -10 10 -2 16 9 5 9 11 -1 23 -11 13 -11 14 1 7 11 -6 13
-4 7 10 -4 11 -2 22 6 27 11 6 10 8 0 8 -7 0 -10 5 -7 10 4 6 7 34 7 63 1 29
5 60 10 71 8 14 7 17 -4 10 -10 -6 -11 -5 -2 7 12 16 12 29 0 48 -6 9 -5 12 1
8 6 -4 10 9 10 33 0 22 -5 40 -11 40 -7 0 -8 3 -1 8 15 10 17 192 2 192 -8 0
-9 3 -1 8 15 10 15 304 0 314 -8 6 -8 8 0 8 6 0 12 11 12 25 0 14 -6 25 -12
25 -6 0 -6 4 2 9 8 4 14 12 14 16 0 4 -6 12 -14 16 -11 7 -11 9 1 9 11 0 11 3
1 15 -10 12 -10 15 1 15 9 0 10 3 3 8 -9 6 -12 35 -15 137 0 16 -5 35 -10 41
-7 8 -6 14 1 19 6 3 8 11 4 16 -3 6 -8 40 -10 77 -2 37 -6 83 -9 102 -2 19 -6
53 -8 76 -2 23 -6 45 -9 50 -3 5 -4 28 -4 52 1 23 -3 42 -9 42 -5 0 -3 5 5 10
10 6 11 10 3 10 -8 0 -13 13 -13 33 0 18 -6 39 -12 46 -11 11 -10 12 2 6 13
-8 13 -7 1 8 -7 9 -10 17 -7 17 4 0 2 9 -4 20 -8 15 -8 20 2 20 9 0 9 3 -2 10
-8 5 -11 10 -6 10 6 0 5 5 -2 12 -7 7 -8 17 -2 29 6 11 7 20 1 24 -6 3 -8 14
-6 25 2 11 0 20 -5 20 -5 0 -7 9 -5 20 2 11 -2 25 -8 32 -7 7 -12 34 -12 61 1
26 -3 47 -7 47 -4 0 -8 18 -8 41 0 22 -4 38 -8 35 -5 -3 -8 13 -8 35 1 22 -2
43 -6 45 -5 3 -8 16 -8 29 0 13 -4 26 -9 29 -5 4 -8 14 -7 23 2 10 -2 23 -8
29 -7 6 -11 28 -11 48 1 20 -2 36 -7 36 -5 0 -7 4 -3 9 3 5 0 13 -6 16 -5 4
-8 13 -5 21 3 7 1 16 -4 19 -4 3 -7 16 -6 30 2 15 -1 22 -7 18 -6 -4 -8 0 -4
9 3 9 0 26 -7 39 -6 13 -11 34 -10 46 1 12 -3 20 -7 17 -5 -3 -9 6 -9 20 0 14
-5 28 -11 32 -6 3 -9 15 -6 25 3 10 1 22 -4 25 -5 3 -7 10 -4 15 4 5 1 9 -6 9
-7 0 -9 3 -6 7 4 3 1 13 -6 21 -8 11 -8 14 0 9 7 -5 6 3 -3 22 -8 17 -17 38
-19 48 -9 43 -25 86 -36 99 -8 10 -8 14 0 14 7 0 7 7 -1 25 -6 14 -15 25 -19
25 -5 0 -6 7 -3 15 4 8 1 15 -6 15 -6 0 -8 5 -5 10 3 6 1 10 -5 10 -6 0 -8 5
-5 10 4 6 1 17 -5 25 -7 8 -9 15 -5 15 4 0 2 6 -4 13 -6 8 -8 17 -4 20 3 4 1
7 -6 7 -7 0 -9 5 -6 10 4 6 1 17 -5 25 -7 8 -10 15 -6 15 4 0 -1 11 -9 24 -9
13 -15 28 -13 32 1 5 -6 24 -16 42 -10 19 -19 44 -22 55 -5 28 -25 67 -35 67
-4 0 -5 9 -2 20 3 12 0 20 -8 20 -7 0 -9 3 -6 6 3 4 1 16 -5 28 -7 11 -13 23
-13 26 0 3 -10 25 -21 50 -12 25 -27 60 -34 77 -7 18 -16 31 -20 28 -5 -3 -7
3 -5 12 1 10 -6 33 -17 51 -11 17 -16 32 -11 32 4 0 4 4 -2 8 -15 10 -45 68
-45 85 0 8 -7 20 -15 27 -8 7 -12 16 -9 21 3 5 0 9 -7 9 -7 0 -9 3 -6 6 4 4
-2 19 -13 34 -11 15 -17 30 -13 34 3 3 1 6 -5 6 -7 0 -12 7 -12 15 0 8 -5 15
-10 15 -6 0 -10 3 -9 8 2 15 -14 52 -22 52 -5 0 -9 9 -9 20 0 11 -4 20 -10 20
-5 0 -10 8 -10 18 0 10 -9 28 -20 40 -11 12 -20 26 -20 32 0 6 -7 18 -15 27
-8 8 -13 18 -10 23 3 4 -1 10 -9 13 -8 3 -17 19 -21 36 -4 17 -11 29 -16 25
-5 -3 -9 4 -9 15 0 12 -4 21 -9 21 -5 0 -12 14 -16 30 -4 17 -13 30 -21 30
-12 0 -19 19 -15 43 1 5 -2 6 -7 3 -5 -3 -19 17 -33 44 -13 27 -27 50 -31 50
-5 0 -8 5 -8 10 0 6 -13 29 -30 52 -16 22 -30 47 -30 55 0 8 -4 12 -9 9 -8 -5
-15 4 -23 32 -1 4 -10 16 -20 27 -10 11 -21 30 -24 42 -4 13 -10 20 -15 17 -5
-3 -9 2 -9 11 0 10 -5 13 -12 9 -6 -4 -8 -3 -5 3 4 6 -5 23 -18 39 -14 16 -25
34 -25 40 0 7 -7 14 -15 18 -8 3 -15 10 -15 16 0 6 -6 18 -12 25 -30 33 -38
45 -38 54 0 5 -5 13 -12 17 -7 5 -8 2 -3 -7 5 -8 4 -10 0 -6 -5 4 -10 15 -11
24 -2 9 -10 20 -18 25 -9 5 -16 13 -16 18 0 5 -11 21 -25 36 -14 15 -25 33
-25 39 0 7 -7 15 -15 19 -8 3 -15 12 -15 21 0 8 -7 15 -15 15 -8 0 -15 4 -15
10 0 10 -21 38 -57 76 -13 13 -23 28 -23 34 0 6 -7 13 -15 16 -8 4 -15 13 -15
21 0 8 -4 11 -10 8 -5 -3 -10 -1 -10 6 0 6 -11 22 -26 35 -14 13 -22 24 -18
24 4 0 -5 10 -19 23 -15 12 -27 25 -27 29 0 3 -20 27 -45 52 -25 26 -45 52
-45 57 0 6 -4 7 -10 4 -5 -3 -10 -1 -10 4 0 17 -33 50 -43 44 -6 -3 -7 -1 -3
5 4 6 -2 17 -14 24 -11 7 -20 18 -20 25 0 7 -12 19 -27 27 -16 8 -25 15 -20
16 4 0 -17 24 -47 54 -30 29 -52 56 -49 60 4 3 0 6 -9 6 -8 0 -25 14 -38 30
-13 17 -30 30 -39 30 -14 0 -14 2 -1 10 11 7 11 10 2 10 -7 0 -45 32 -83 70
-39 39 -75 70 -80 70 -4 0 -13 9 -19 20 -6 11 -16 17 -22 14 -7 -5 -8 -2 -4 5
5 8 0 14 -13 18 -11 3 -19 9 -16 13 3 5 -11 18 -30 30 -19 12 -33 26 -29 31 3
5 -1 9 -9 9 -8 0 -17 7 -21 15 -3 8 -11 14 -18 13 -7 -2 -12 2 -11 9 2 6 -6
15 -17 18 -11 4 -20 11 -20 16 0 5 -4 9 -9 9 -5 0 -25 15 -44 33 -36 33 -44
40 -117 97 -25 19 -53 43 -62 54 -10 10 -18 16 -18 13 0 -3 -10 3 -22 13 -13
11 -43 35 -68 55 -25 19 -49 39 -55 43 -5 4 -27 19 -47 33 -21 14 -35 29 -30
34 4 4 1 6 -7 3 -8 -2 -28 8 -44 24 -17 15 -33 25 -35 23 -3 -3 -14 6 -26 18
-12 12 -25 23 -30 23 -5 1 -19 11 -32 23 -13 13 -29 19 -35 15 -8 -4 -9 -3 -5
4 4 7 1 12 -9 12 -8 0 -18 6 -21 14 -3 8 -16 17 -30 20 -13 4 -24 11 -24 16 0
6 -6 10 -14 10 -8 0 -21 9 -29 20 -8 11 -17 17 -20 14 -3 -4 -17 3 -31 14 -14
10 -22 22 -19 26 3 3 2 6 -3 7 -31 2 -50 10 -60 23 -6 9 -13 13 -16 11 -3 -3
-11 1 -18 10 -7 8 -19 15 -26 15 -8 0 -14 5 -14 11 0 5 -4 7 -10 4 -5 -3 -10
-2 -10 3 0 5 -13 15 -30 22 -16 7 -30 17 -30 22 0 6 -7 7 -16 4 -8 -3 -12 -2
-9 4 3 6 -1 10 -9 10 -9 0 -16 4 -16 10 0 5 -3 9 -7 8 -5 -1 -22 5 -39 15 -17
9 -35 13 -39 9 -3 -4 -5 0 -3 8 2 8 -3 14 -9 13 -7 -2 -13 2 -13 7 0 6 -7 10
-15 10 -8 0 -15 4 -15 10 0 5 -3 9 -7 8 -5 -1 -18 3 -29 10 -12 6 -24 8 -28 5
-3 -3 -6 -2 -6 4 0 6 -35 27 -77 49 -43 21 -79 42 -81 46 -2 4 -12 8 -23 8
-10 0 -19 5 -19 10 0 6 -8 10 -19 10 -10 0 -24 7 -31 15 -7 9 -19 14 -27 11
-7 -3 -13 -2 -13 2 0 4 -9 13 -21 20 -12 8 -18 9 -14 3 11 -19 -10 -12 -24 8
-8 11 -21 17 -30 13 -9 -3 -13 -1 -8 3 7 8 -41 30 -90 42 -13 3 -23 8 -23 12
0 4 -17 13 -37 20 -21 8 -47 21 -57 30 -14 11 -17 12 -11 2 6 -11 2 -10 -16 2
-13 9 -31 17 -41 17 -10 0 -18 5 -18 11 0 6 -7 9 -15 5 -8 -3 -19 2 -24 12 -6
9 -11 13 -11 8 0 -5 -8 -2 -17 5 -9 8 -14 9 -10 3 3 -6 -15 0 -41 12 -26 13
-53 24 -59 24 -7 0 -13 4 -13 10 0 5 -6 7 -14 4 -8 -3 -17 -1 -21 5 -3 6 -17
11 -31 11 -14 0 -22 4 -19 10 3 5 0 7 -8 4 -8 -3 -18 -1 -22 5 -3 6 -17 11
-31 11 -13 0 -24 5 -24 10 0 6 -10 10 -23 10 -13 0 -28 5 -35 12 -7 7 -12 8
-12 3 0 -6 -4 -5 -8 2 -4 6 -20 13 -37 16 -28 5 -67 17 -123 39 -13 4 -28 6
-33 2 -5 -3 -9 -2 -8 3 3 19 -2 27 -10 15 -7 -11 -10 -11 -22 0 -8 7 -25 15
-39 17 -14 1 -28 8 -32 15 -5 8 -8 7 -8 -3 0 -11 -3 -11 -15 -1 -8 7 -15 9
-15 4 0 -5 -4 -4 -8 3 -4 7 -22 13 -40 15 -18 1 -32 6 -32 11 0 4 -4 5 -10 2
-5 -3 -10 0 -10 7 0 9 -3 9 -10 -2 -5 -8 -10 -10 -10 -5 0 10 -156 53 -172 47
-5 -1 -8 2 -8 6 0 4 -14 9 -32 10 -17 2 -36 6 -42 11 -6 5 -21 7 -34 5 -14 -3
-21 0 -17 6 3 5 1 10 -4 10 -6 0 -11 -5 -11 -11 0 -6 -7 -4 -15 5 -9 8 -22 13
-30 10 -8 -4 -15 -1 -15 5 0 6 -6 8 -14 5 -8 -3 -23 -1 -34 5 -15 8 -22 8 -25
-2 -4 -9 -6 -9 -6 1 -1 7 -14 12 -31 12 -17 0 -30 5 -30 13 0 8 -4 7 -10 -3
-5 -8 -10 -10 -10 -4 0 6 -6 11 -12 11 -32 2 -101 14 -109 19 -5 3 -24 7 -42
9 -103 12 -121 16 -135 27 -11 9 -14 9 -9 1 5 -8 0 -11 -13 -10 -11 1 -20 4
-20 7 0 3 -19 7 -42 9 -23 1 -47 6 -53 11 -7 6 -16 5 -23 -2 -7 -7 -12 -8 -12
-2 0 6 -10 10 -22 11 -25 1 -140 13 -175 18 -13 2 -28 7 -34 11 -8 4 -9 3 -5
-4 4 -7 2 -12 -3 -12 -6 0 -11 4 -11 10 0 5 -13 7 -30 5 -16 -2 -30 0 -30 3 0
4 -13 7 -30 7 -16 0 -30 -4 -30 -8 0 -5 -6 -5 -12 0 -17 10 -32 12 -105 15
-36 1 -59 6 -56 12 4 5 1 6 -8 1 -19 -12 -49 -14 -49 -3 0 5 -8 5 -17 0 -21
-10 -33 -10 -50 1 -8 5 -13 3 -13 -5 0 -9 -3 -9 -8 -2 -4 6 -54 12 -122 13
-193 5 -332 6 -334 4z m3470 -9562 c-7 -10 13 -9 31 2 6 4 14 3 18 -2 4 -7 15
-7 31 -1 14 6 23 6 20 2 -3 -5 16 -8 42 -8 26 1 56 -5 68 -12 11 -6 24 -9 27
-6 4 4 14 1 24 -7 9 -8 14 -9 10 -3 -3 6 0 11 8 11 8 0 12 -4 9 -9 -3 -4 11
-8 31 -8 20 0 34 -4 31 -8 -2 -4 7 -7 22 -7 15 1 32 -1 37 -4 11 -6 29 -10 58
-13 9 -1 17 -5 17 -9 0 -4 8 -6 18 -4 9 1 22 0 27 -4 6 -3 21 -7 35 -9 14 -2
27 -7 28 -13 2 -5 7 -7 12 -4 4 3 26 -2 49 -10 23 -8 41 -12 41 -8 0 3 8 -1
17 -8 14 -12 16 -12 8 0 -5 8 7 4 25 -9 18 -13 30 -19 26 -12 -4 7 5 6 28 -3
20 -8 45 -15 56 -15 11 0 20 -5 20 -11 0 -6 9 -9 20 -6 11 3 20 1 20 -4 0 -5
12 -9 28 -9 15 0 36 -7 46 -15 11 -8 33 -15 49 -15 20 0 26 -4 21 -12 -5 -8 0
-7 11 2 11 9 16 10 11 3 -5 -9 -1 -13 11 -13 11 0 25 -6 32 -12 11 -11 12 -10
6 2 -7 12 -6 13 6 3 8 -6 31 -14 52 -18 20 -4 39 -11 42 -15 3 -5 14 -6 24 -3
10 3 22 0 26 -7 5 -8 11 -7 23 2 12 10 14 10 8 1 -5 -10 5 -13 38 -13 30 0 46
-4 46 -12 0 -9 3 -9 9 1 8 13 12 13 27 0 10 -8 15 -9 11 -2 -8 13 49 13 70 0
6 -4 14 -3 17 1 8 14 136 15 136 2 0 -6 5 -8 12 -4 6 4 8 3 4 -4 -3 -6 -2 -13
4 -17 20 -12 10 -57 -17 -81 -16 -13 -34 -24 -41 -24 -7 0 -11 -4 -8 -9 5 -8
-40 -26 -56 -23 -5 1 -8 -3 -8 -8 0 -6 -7 -10 -16 -10 -9 0 -12 -5 -8 -12 5
-8 2 -9 -9 -5 -9 3 -20 0 -24 -8 -5 -7 -12 -14 -16 -14 -14 0 -67 -26 -67 -33
0 -4 -6 -5 -14 -2 -7 3 -20 -1 -27 -9 -8 -7 -20 -12 -27 -9 -6 2 -12 -1 -12
-7 0 -6 -11 -11 -25 -11 -14 0 -25 -4 -25 -10 0 -5 -7 -10 -15 -10 -8 0 -15
-4 -15 -10 0 -5 -7 -6 -17 -3 -10 4 -14 2 -10 -4 4 -7 -5 -14 -23 -18 -16 -4
-30 -11 -30 -16 0 -5 -5 -9 -10 -9 -6 0 -16 -5 -23 -10 -46 -39 -61 -50 -69
-50 -5 0 -6 -4 -3 -10 3 -5 0 -10 -8 -10 -8 0 -22 -11 -33 -24 -10 -14 -21
-23 -26 -20 -4 3 -8 1 -8 -4 0 -5 -25 -35 -55 -67 -30 -32 -52 -62 -48 -68 3
-6 1 -7 -5 -3 -7 4 -20 -7 -33 -28 -12 -20 -25 -36 -30 -36 -5 0 -8 -6 -6 -12
1 -7 -4 -12 -12 -10 -8 2 -11 -3 -8 -12 4 -9 -2 -17 -14 -21 -11 -4 -18 -9
-15 -12 6 -7 -30 -62 -52 -80 -11 -9 -12 -13 -4 -13 9 0 10 -4 2 -12 -40 -48
-50 -62 -50 -73 0 -6 -9 -21 -20 -33 -12 -12 -18 -22 -14 -22 4 0 -1 -9 -10
-19 -10 -11 -16 -24 -13 -29 3 -4 -2 -14 -13 -22 -10 -7 -16 -19 -13 -27 3 -7
0 -13 -6 -13 -6 0 -11 -9 -11 -19 0 -11 -3 -21 -7 -23 -16 -6 -57 -106 -54
-127 1 -7 -2 -10 -7 -7 -8 5 -27 -47 -23 -66 0 -5 -4 -8 -11 -8 -6 0 -8 -3 -5
-7 4 -3 0 -17 -9 -31 -9 -13 -12 -22 -6 -18 5 3 1 -11 -9 -31 -10 -20 -16 -40
-13 -44 3 -5 0 -9 -6 -9 -7 0 -10 -7 -7 -15 4 -8 2 -17 -3 -20 -6 -4 -10 -15
-10 -26 0 -11 -4 -18 -9 -15 -5 4 -8 -2 -7 -11 2 -10 -7 -42 -20 -70 -13 -29
-20 -53 -16 -53 3 0 1 -5 -6 -12 -7 -7 -12 -21 -12 -33 0 -11 -8 -31 -17 -44
-9 -14 -12 -21 -6 -18 8 5 7 -1 0 -18 -7 -14 -16 -25 -20 -25 -5 0 -5 -5 -2
-10 4 -6 2 -16 -3 -23 -6 -7 -13 -29 -17 -49 -4 -21 -11 -35 -16 -32 -5 3 -9
-9 -9 -25 0 -17 -4 -31 -9 -31 -5 0 -8 -11 -7 -25 2 -13 -1 -22 -5 -19 -5 3
-9 -2 -9 -11 0 -8 -4 -23 -9 -33 -21 -42 -41 -94 -41 -107 0 -8 -4 -15 -10
-15 -5 0 -7 -7 -4 -15 4 -8 1 -15 -5 -15 -6 0 -11 -11 -11 -23 0 -13 -3 -27
-7 -31 -5 -4 -8 -11 -8 -14 -1 -4 -6 -17 -13 -28 -6 -12 -8 -24 -5 -28 3 -3 1
-6 -5 -6 -7 0 -11 -3 -10 -7 1 -9 -9 -40 -23 -65 -5 -10 -9 -25 -9 -33 0 -8
-4 -15 -10 -15 -5 0 -7 -7 -4 -15 4 -8 1 -15 -6 -15 -6 0 -8 -4 -5 -10 3 -5 1
-10 -5 -10 -7 0 -10 -7 -6 -15 3 -8 1 -15 -5 -15 -6 0 -9 -6 -7 -12 3 -7 -3
-21 -13 -31 -9 -10 -16 -29 -14 -43 1 -13 -1 -21 -6 -18 -4 2 -16 -18 -26 -46
-10 -27 -21 -50 -25 -50 -5 0 -8 -8 -8 -18 0 -10 -7 -27 -15 -38 -8 -10 -15
-27 -15 -36 0 -10 -5 -18 -11 -18 -5 0 -7 -4 -4 -10 3 -5 1 -10 -4 -10 -6 0
-11 -9 -11 -20 0 -11 -4 -20 -10 -20 -5 0 -10 -9 -10 -20 0 -11 -5 -20 -11
-20 -6 0 -9 -7 -5 -15 3 -8 2 -15 -3 -15 -5 0 -12 -11 -15 -25 -4 -14 -11 -25
-16 -25 -6 0 -10 -9 -10 -20 0 -11 -5 -20 -11 -20 -5 0 -8 -4 -5 -9 4 -5 1
-11 -4 -13 -6 -2 -12 -13 -13 -25 0 -12 -4 -20 -8 -18 -10 7 -30 -45 -23 -57
4 -7 2 -8 -4 -4 -7 4 -12 1 -12 -8 0 -9 -4 -16 -9 -16 -5 0 -12 -11 -15 -25
-4 -14 -11 -25 -17 -25 -6 0 -7 -4 -4 -10 3 -5 2 -10 -3 -10 -4 0 -14 -16 -22
-35 -7 -19 -19 -36 -25 -39 -7 -2 -15 -16 -19 -31 -4 -15 -15 -36 -26 -47 -11
-12 -17 -25 -14 -30 3 -4 -2 -8 -10 -8 -10 0 -13 -7 -11 -20 2 -11 0 -18 -4
-15 -7 4 -18 -12 -23 -35 -1 -3 -6 -10 -12 -16 -6 -6 -17 -21 -25 -32 -8 -12
-19 -18 -25 -15 -6 4 -4 -2 4 -12 8 -10 11 -16 5 -13 -5 3 -16 0 -23 -8 -7 -8
-9 -14 -5 -14 4 0 -1 -7 -11 -15 -11 -8 -16 -15 -12 -15 8 0 -54 -83 -66 -88
-5 -2 -8 -10 -8 -17 0 -8 -9 -20 -20 -28 -11 -8 -17 -17 -13 -20 3 -4 1 -7 -5
-7 -6 0 -14 -9 -17 -20 -3 -11 -13 -20 -21 -20 -8 0 -13 -4 -10 -8 3 -5 -13
-27 -35 -50 -21 -23 -36 -42 -33 -42 3 0 -14 -20 -39 -45 -26 -25 -44 -45 -41
-45 2 0 -47 -52 -110 -115 -63 -63 -120 -115 -127 -115 -7 0 -10 -3 -6 -6 8
-8 -25 -44 -40 -44 -7 0 -13 -4 -13 -9 0 -5 -24 -27 -52 -49 -29 -22 -64 -49
-77 -61 -13 -11 -28 -21 -33 -21 -5 0 -6 -4 -3 -10 3 -5 -1 -10 -9 -10 -9 0
-25 -9 -36 -20 -11 -11 -20 -17 -20 -13 0 4 -9 -3 -21 -15 -11 -12 -25 -19
-31 -16 -6 4 -8 3 -5 -3 6 -10 -5 -19 -26 -21 -4 -1 -19 -14 -32 -28 -14 -15
-25 -23 -25 -19 0 5 -10 0 -22 -11 -13 -11 -40 -29 -60 -39 -21 -11 -38 -24
-38 -28 0 -5 -7 -6 -16 -3 -12 5 -15 2 -10 -9 3 -9 2 -13 -4 -10 -8 5 -46 -11
-60 -25 -9 -9 -65 -34 -72 -32 -5 1 -8 -3 -8 -8 0 -6 -7 -10 -15 -10 -8 0 -15
-4 -15 -10 0 -5 -6 -10 -12 -10 -7 0 -40 -14 -73 -30 -33 -16 -66 -30 -73 -30
-7 0 -10 -5 -6 -12 4 -7 3 -8 -4 -4 -6 4 -22 1 -34 -6 -13 -7 -29 -11 -37 -9
-8 1 -10 -2 -5 -10 5 -9 2 -10 -9 -6 -10 3 -17 2 -17 -4 0 -6 -4 -8 -9 -4 -5
3 -16 -2 -24 -10 -8 -8 -29 -16 -46 -17 -17 -1 -31 -6 -31 -11 0 -4 -4 -5 -10
-2 -5 3 -10 1 -10 -4 0 -6 -9 -11 -20 -11 -11 0 -20 -6 -20 -12 0 -9 -4 -8
-10 2 -8 12 -10 12 -10 1 0 -8 -7 -11 -20 -8 -11 3 -20 1 -20 -4 0 -5 -9 -9
-20 -9 -11 0 -20 -5 -20 -11 0 -6 -6 -9 -12 -6 -7 2 -35 -4 -63 -13 -27 -9
-68 -21 -90 -25 -45 -9 -53 -11 -60 -15 -10 -5 -26 -8 -56 -9 -16 0 -28 -5
-25 -9 2 -4 -3 -8 -12 -8 -16 0 -95 -11 -134 -17 -10 -2 -21 -6 -24 -10 -4 -4
-14 -1 -22 6 -10 7 -13 8 -9 1 4 -8 -1 -12 -16 -12 -24 1 -182 -11 -200 -15
-7 -1 -15 -6 -19 -12 -5 -6 -8 -5 -8 2 0 8 -13 12 -35 11 -21 -1 -32 -5 -28
-12 3 -6 0 -5 -7 1 -9 9 -17 9 -26 2 -8 -7 -14 -7 -19 1 -5 8 -11 8 -21 -1
-11 -9 -14 -8 -14 2 0 10 -3 10 -12 1 -7 -7 -17 -12 -22 -12 -6 0 -4 5 4 10 9
6 10 10 3 10 -6 0 -15 -5 -19 -11 -4 -8 -9 -7 -15 2 -7 11 -9 11 -9 -1 0 -13
-1 -13 -10 0 -9 13 -10 13 -10 0 0 -13 -1 -13 -10 0 -9 13 -11 13 -20 0 -8
-13 -10 -13 -10 0 0 10 -3 11 -11 3 -9 -9 -16 -9 -31 0 -15 10 -21 9 -28 -3
-6 -9 -10 -10 -10 -3 0 6 -16 11 -37 11 -21 0 -40 1 -43 2 -3 1 -36 3 -75 6
-38 3 -73 10 -77 17 -6 9 -8 9 -8 0 0 -7 -9 -10 -22 -7 -13 3 -34 7 -48 10
-13 3 -26 7 -29 9 -2 2 -11 0 -20 -4 -10 -6 -23 -4 -34 4 -10 7 -27 11 -37 8
-11 -3 -20 -1 -20 4 0 5 -6 10 -12 10 -61 3 -98 8 -98 14 0 4 -20 10 -45 13
-24 4 -47 11 -50 15 -2 5 -16 7 -30 6 -14 -2 -25 0 -25 4 0 4 -11 8 -26 9 -14
1 -34 6 -44 12 -10 6 -30 11 -44 12 -15 1 -26 6 -26 11 0 5 -7 7 -15 3 -8 -3
-15 -2 -15 3 0 5 -16 12 -36 16 -21 3 -47 13 -59 21 -12 8 -24 12 -27 9 -3 -3
-22 3 -43 15 -21 12 -40 19 -42 16 -3 -3 -15 1 -27 9 -11 8 -28 15 -38 15 -10
0 -18 5 -18 10 0 6 -8 10 -18 10 -10 0 -28 7 -40 16 -12 8 -22 12 -22 7 0 -4
-7 1 -16 12 -8 11 -17 18 -20 16 -2 -2 -14 -1 -25 2 -10 3 -22 5 -26 5 -3 0
-9 4 -12 9 -9 13 -89 53 -107 53 -8 0 -12 5 -9 10 3 6 -3 10 -15 10 -11 0 -23
7 -27 16 -3 8 -12 13 -19 10 -8 -3 -14 -2 -14 2 0 4 -21 18 -47 32 -27 14 -54
30 -61 37 -7 7 -19 13 -25 13 -7 0 -24 11 -39 25 -15 14 -30 25 -33 25 -4 0
-27 14 -52 32 -26 17 -52 31 -59 31 -7 0 -12 3 -10 6 2 3 -2 12 -10 19 -8 7
-14 10 -14 7 0 -3 -12 6 -27 20 -15 14 -32 25 -38 25 -6 0 -16 9 -23 20 -7 12
-17 18 -21 15 -5 -3 -11 -2 -13 2 -6 14 -102 88 -111 85 -5 -1 -6 2 -2 8 3 5
-1 10 -10 10 -9 0 -13 5 -10 10 3 6 -1 10 -9 10 -8 0 -20 8 -25 18 -6 9 -11
14 -11 11 0 -7 -68 53 -162 144 -33 31 -64 57 -69 57 -5 0 -9 7 -9 16 0 8 -4
12 -10 9 -5 -3 -10 1 -10 10 0 9 -4 14 -9 11 -5 -3 -11 4 -14 15 -3 12 -10 18
-16 15 -5 -4 -12 3 -16 14 -4 11 -11 18 -16 15 -5 -4 -9 1 -9 10 0 9 -4 13
-10 10 -5 -3 -10 -1 -10 4 0 6 -13 24 -30 39 -16 16 -28 31 -25 34 3 2 -6 11
-20 18 -14 7 -25 19 -25 26 0 7 -6 17 -14 21 -8 4 -28 25 -44 45 -16 21 -32
35 -36 31 -3 -3 -6 1 -6 9 0 9 -13 29 -30 45 -16 15 -30 34 -30 41 0 7 -4 10
-10 7 -5 -3 -10 0 -10 8 0 8 -14 30 -30 48 -42 48 -50 57 -50 64 0 3 -8 14
-17 24 -33 37 -43 50 -43 61 0 5 -4 10 -10 10 -5 0 -12 11 -16 25 -3 14 -10
25 -15 25 -4 0 -16 13 -25 29 -10 17 -22 27 -27 24 -6 -3 -7 -1 -4 4 4 6 -4
27 -18 47 -14 20 -25 41 -25 46 0 6 -5 10 -11 10 -5 0 -8 4 -5 8 3 5 -4 14
-14 22 -10 8 -17 17 -14 22 3 4 0 8 -5 8 -6 0 -11 6 -11 13 0 7 -9 23 -20 35
-23 24 -26 37 -7 26 6 -4 0 5 -15 20 -15 16 -25 32 -22 37 3 5 0 9 -6 9 -6 0
-9 4 -6 8 3 5 -4 16 -15 25 -17 15 -24 36 -20 60 1 5 -2 6 -6 4 -5 -3 -14 1
-21 9 -10 11 -10 14 0 14 10 1 9 4 -2 13 -20 16 -40 53 -40 72 0 8 -5 15 -12
15 -6 0 -9 3 -5 6 3 4 0 13 -8 21 -8 8 -15 23 -15 34 0 10 -4 19 -9 19 -9 0
-27 40 -22 49 2 2 -1 7 -6 10 -14 10 -43 68 -43 85 0 9 -3 16 -7 16 -9 0 -33
48 -33 66 0 7 -8 18 -18 23 -10 6 -12 11 -4 11 8 0 5 15 -12 45 -14 25 -28 57
-30 71 -3 14 -10 32 -17 40 -6 8 -8 14 -4 14 4 0 1 10 -7 23 -8 12 -13 32 -12
45 1 12 -3 22 -7 22 -5 0 -9 9 -9 19 0 11 -4 22 -10 26 -5 3 -7 12 -3 20 3 9
1 21 -5 28 -10 13 -26 67 -24 80 1 4 -3 7 -8 7 -7 0 -7 7 1 21 8 15 8 19 0 15
-7 -5 -11 2 -11 18 0 13 -4 26 -9 28 -5 2 -12 21 -15 43 -11 68 -13 79 -30
123 -8 23 -13 49 -10 57 4 8 1 15 -5 15 -6 0 -11 16 -11 36 0 21 -4 33 -10 29
-5 -3 -10 4 -9 17 0 13 -2 32 -4 43 -3 11 -6 28 -6 38 -1 10 -5 16 -10 13 -5
-4 -8 2 -6 11 1 10 -1 23 -5 28 -3 6 -7 21 -8 34 0 13 -7 28 -14 32 -10 7 -10
9 2 9 9 0 11 3 4 8 -14 9 -28 43 -25 60 3 16 -28 101 -43 121 -9 12 -8 13 4 6
12 -6 13 -5 3 6 -7 7 -13 23 -13 35 0 12 -5 24 -11 26 -6 2 -11 16 -11 31 0
15 -5 30 -9 33 -5 3 -7 10 -4 15 4 5 1 9 -6 9 -7 0 -9 3 -6 7 4 3 2 12 -4 20
-6 7 -8 13 -5 13 4 0 2 9 -4 20 -8 15 -8 20 3 20 7 0 20 -11 27 -25 7 -14 17
-25 22 -25 4 0 8 -7 8 -16 0 -8 4 -12 10 -9 5 3 10 3 10 -2 0 -4 14 -23 31
-40 16 -18 26 -33 22 -33 -4 0 4 -8 20 -18 15 -10 24 -22 20 -25 -3 -4 1 -7
10 -7 9 0 17 -4 17 -8 0 -13 139 -152 151 -152 6 0 8 -3 6 -7 -3 -5 1 -14 9
-21 8 -7 14 -10 14 -6 0 4 15 -8 33 -27 47 -48 85 -79 99 -79 6 0 9 -3 6 -6
-10 -10 26 -41 41 -36 9 4 12 1 7 -6 -4 -7 -1 -12 9 -12 9 0 13 -4 10 -10 -3
-5 1 -10 9 -10 9 0 16 -3 16 -7 0 -5 24 -24 54 -43 30 -19 52 -38 50 -42 -5
-7 10 -11 21 -5 2 1 12 -8 20 -20 9 -13 23 -23 31 -23 8 0 14 -4 14 -10 0 -5
6 -10 13 -10 7 0 23 -9 34 -19 12 -11 23 -17 27 -14 3 3 8 -2 12 -11 3 -9 12
-16 20 -16 8 0 14 -5 14 -11 0 -5 5 -7 10 -4 6 3 10 2 10 -3 0 -5 18 -17 40
-27 22 -10 40 -22 40 -27 0 -4 7 -8 15 -8 8 0 15 -4 15 -10 0 -5 6 -7 14 -4 7
3 16 -2 20 -11 3 -9 10 -14 15 -11 5 3 14 -1 21 -9 7 -8 17 -15 22 -15 6 0 23
-9 39 -21 16 -11 29 -17 29 -13 0 4 8 0 18 -8 17 -15 46 -29 70 -34 8 -1 21
-9 30 -17 18 -15 62 -32 75 -29 4 1 7 -3 7 -8 0 -6 9 -10 21 -10 12 0 18 -4
13 -11 -4 -7 -1 -10 7 -7 8 3 20 -2 27 -11 8 -9 10 -10 7 -2 -5 9 1 8 19 -4
14 -10 26 -14 26 -10 0 3 14 -4 32 -16 17 -13 28 -18 24 -11 -4 7 9 3 28 -9
20 -12 36 -17 36 -12 0 4 4 4 8 -2 4 -5 18 -16 31 -23 19 -11 22 -11 15 0 -5
8 2 6 19 -4 14 -10 33 -18 42 -18 8 0 15 -6 15 -12 0 -9 4 -8 10 2 5 8 10 10
10 5 0 -8 84 -46 110 -50 3 0 11 -4 18 -9 7 -4 19 -5 27 -2 8 3 17 1 20 -4 4
-6 15 -10 26 -10 10 0 19 -4 19 -10 0 -5 11 -10 24 -10 14 0 27 -4 31 -9 3 -6
14 -8 25 -6 11 2 20 -1 20 -7 0 -5 6 -8 14 -5 7 3 19 0 25 -6 6 -6 19 -12 28
-14 10 -1 35 -6 55 -9 23 -4 35 -10 31 -17 -3 -5 -1 -7 4 -4 6 4 31 1 56 -7
25 -8 48 -11 51 -8 3 2 12 -1 21 -8 8 -7 15 -9 15 -5 0 4 6 3 13 -2 6 -6 20
-9 29 -8 10 2 20 -1 23 -5 3 -5 12 -7 20 -3 8 3 15 1 15 -4 0 -5 14 -10 32
-11 17 -2 38 -8 47 -15 12 -10 13 -9 6 2 -6 11 -5 12 6 5 16 -10 10 -9 77 -19
29 -4 55 -12 58 -17 3 -5 13 -3 22 4 10 8 13 9 9 1 -5 -8 3 -11 25 -9 18 2 36
-1 39 -6 3 -5 26 -10 50 -11 24 -1 50 -6 57 -10 7 -5 12 -3 12 4 0 7 4 8 13 2
6 -5 27 -10 46 -12 19 -1 40 -6 47 -12 8 -7 14 -7 18 0 4 6 16 7 29 3 12 -4
31 -7 42 -7 11 1 25 -3 32 -7 6 -5 14 -5 18 2 4 7 12 7 25 0 25 -13 33 -13 24
2 -5 7 -3 8 7 2 20 -12 36 -14 107 -15 46 0 61 -3 55 -12 -4 -7 0 -7 10 2 13
10 20 11 31 2 9 -7 17 -8 20 -2 7 10 25 9 44 -2 6 -5 12 -4 12 1 0 10 62 8 79
-2 5 -4 12 -2 16 3 3 7 15 7 29 1 13 -5 26 -6 29 -3 3 3 72 7 154 9 81 2 169
5 196 5 26 1 50 6 53 11 3 5 13 3 22 -4 12 -10 14 -10 8 0 -5 8 -1 11 16 8 13
-2 33 1 46 5 17 7 21 6 16 -3 -4 -7 -3 -8 5 -4 6 4 33 10 59 13 26 2 53 10 61
16 12 9 13 9 7 0 -4 -7 -3 -13 1 -13 5 0 15 6 22 13 11 10 12 9 6 -3 -7 -12
-6 -13 6 -4 8 6 25 11 39 12 37 3 54 7 67 15 6 4 13 3 15 -3 2 -6 15 -4 32 5
32 17 49 20 26 5 -9 -6 -10 -10 -3 -10 6 0 14 4 17 9 6 8 102 27 119 23 4 -1
7 4 7 11 0 8 4 7 10 -3 6 -10 10 -11 10 -2 0 7 13 12 29 12 17 0 32 4 35 8 2
4 19 9 37 10 18 1 37 6 43 11 6 5 19 7 29 6 9 -2 17 0 17 4 0 4 6 8 13 9 28 2
67 13 132 38 11 4 27 8 36 9 9 1 30 9 48 18 17 9 29 11 25 6 -3 -6 11 -1 32
10 20 11 41 18 46 15 4 -3 8 0 8 7 0 7 3 9 7 6 3 -4 17 0 31 9 17 11 22 12 17
3 -5 -8 0 -6 11 3 11 10 30 19 42 21 12 2 28 9 34 15 7 7 20 12 29 12 10 0 21
5 24 11 4 6 13 8 21 5 8 -3 14 -1 14 4 0 6 7 10 15 10 8 0 15 5 15 10 0 6 3 9
8 8 14 -4 52 13 52 24 0 5 6 8 14 5 8 -3 23 3 35 14 12 11 21 17 21 13 0 -3
12 1 26 11 14 9 28 14 31 12 2 -3 13 3 24 14 10 10 26 19 34 19 8 0 15 5 15
10 0 6 4 10 9 10 17 0 141 77 134 84 -3 3 1 6 10 6 9 0 19 0 22 0 2 0 17 12
31 25 15 14 29 23 32 21 2 -3 16 6 30 20 15 13 31 24 35 24 8 0 22 11 77 62
13 12 20 13 24 5 2 -7 5 -5 5 4 1 9 16 24 34 33 17 8 28 16 23 16 -6 0 10 15
35 32 24 18 49 37 55 43 6 5 21 17 33 25 11 8 21 21 21 30 0 12 2 13 9 1 7
-11 10 -9 16 7 3 12 10 21 15 19 4 -1 17 9 29 22 12 13 21 20 21 16 0 -4 11 4
25 19 13 14 27 26 30 26 10 0 43 38 38 44 -4 3 0 6 8 6 7 0 25 11 39 24 86 84
140 134 140 130 0 -3 6 1 14 8 8 7 12 16 9 21 -2 4 1 7 7 7 6 0 37 27 70 59
32 32 60 57 62 55 2 -1 12 10 23 27 11 16 26 29 33 29 7 0 10 5 7 10 -3 6 -2
10 3 10 14 0 62 47 55 54 -4 3 -1 6 5 6 6 0 103 92 216 205 113 114 206 202
207 198 0 -4 4 2 9 15 5 12 17 22 25 22 9 0 14 4 10 9 -3 5 4 12 15 16 11 4
18 11 15 16 -4 5 -1 9 5 9 6 0 29 18 50 40 22 23 40 37 40 33 0 -4 5 0 11 10
6 9 15 15 20 11 5 -3 8 -2 7 3 -3 8 35 51 50 56 4 1 6 5 4 10 -1 4 4 7 11 7 7
0 30 15 50 34 20 18 37 31 37 27 0 -3 5 2 11 12 5 9 17 17 25 17 8 0 12 5 9
10 -3 6 -1 10 5 10 6 0 16 5 23 10 25 21 56 46 83 65 16 11 36 28 46 38 10 9
23 17 28 17 18 0 75 66 77 89 1 11 -2 21 -8 21 -5 0 -9 7 -9 16 0 9 -9 18 -20
21 -11 3 -20 8 -20 12 0 4 -17 15 -37 26 -21 11 -41 24 -45 30 -5 7 -8 7 -8 0
0 -6 -3 -6 -8 0 -13 20 -83 55 -94 49 -6 -4 -8 -3 -5 2 3 5 -8 17 -24 27 -17
9 -27 13 -24 8 3 -5 -6 -4 -19 2 -13 7 -22 15 -20 19 3 4 -5 5 -16 3 -11 -2
-20 0 -20 5 0 5 -6 7 -14 4 -8 -3 -17 0 -21 5 -3 6 -11 9 -16 6 -5 -4 -9 -2
-9 4 0 5 -8 10 -17 9 -10 0 -36 3 -58 7 -22 4 -47 8 -55 9 -22 2 -43 18 -61
46 -24 38 -5 72 44 79 5 0 6 -3 3 -8z"/>
</g>
</svg>
